# xmcd
#
# Track frame offsets: 
#        150
#        3805
#        23230
#        48155
#        60992
#        88421
#        112585
#        129965
#        157423
#        179329
#        195775
#        212773
#        235041
#        255515
#        278037
#        296357
#        311523
#        342253
#
# Disc length: 4790 seconds
#
# Revision: 0
# Processed by: cddbd v1.5.1PL2 Copyright (c) Steve Scherf et al.
# Submitted via: ExactAudioCopy v0.90b3
#
DISCID=e712b412
DTITLE=Various Artist - Mountain Stage 05 - 06
DYEAR=2006
DGENRE=Country
TTITLE0=Intor - Intro
TTITLE1=Tom Russell - The Pugilist at 59
TTITLE2=Tom Russell - Beautiful Trouble
TTITLE3=Tom Russell - Stealing Electricity
TTITLE4=Tom Russell - Woodrow
TTITLE5=Tom Russell - Grapevine
TTITLE6=Julie Adams - I'm Crazy for My Baby
TTITLE7=The Rarely Herd - Waving Girl
TTITLE8=The Rarely Herd - Safety Zone
TTITLE9=The Rarely Herd - Simon Crutchfield's Grave
TTITLE10=The Avett Brothers - Distraction # 74
TTITLE11=The Avett Brothers - Swept Away
TTITLE12=The Avett Brothers - Pretend Love
TTITLE13=The Avett Brothers - Four Theves Gone
TTITLE14=Junior Brown - Broke Down South of Dallas
TTITLE15=Junior Brown - My Wife Thinks Your Deas
TTITLE16=Junior Brown - Hung Up on You
TTITLE17=Junior Brown - Highway Patrol
EXTD=
EXTT0=
EXTT1=
EXTT2=
EXTT3=
EXTT4=
EXTT5=
EXTT6=
EXTT7=
EXTT8=
EXTT9=
EXTT10=
EXTT11=
EXTT12=
EXTT13=
EXTT14=
EXTT15=
EXTT16=
EXTT17=
PLAYORDER=
